# xmcd
#
# Track frame offsets:
#	150
#	1888
#	12309
#	25006
#	42411
#	58229
#	70283
#	85464
#	98358
#	111782
#	129310
#	142593
#	157459
#	174877
#	183589
#	198730
#
# Disc length: 2676 seconds
#
# Revision: 0
# Processed by: cddbd v1.4PL0 Copyright (c) Steve Scherf et al.
# Submitted via: dBpowerAMP V4.0
#
DISCID=d20a7210
DTITLE=Ex-Husbands - ...All Gussied Up
DYEAR=1900
DGENRE=Country
TTITLE0=Commencement
TTITLE1=Line Forms on the Right
TTITLE2=On Up the Road
TTITLE3=Whatever Happened to You
TTITLE4=Flat Broke in Hoboken
TTITLE5=She Started Coming 'round Again
TTITLE6=Gear Jammin' Daddy
TTITLE7=Memories Ain't Allowed
TTITLE8=Blues Can't Chase Me Forever
TTITLE9=Monkey in the Middle
TTITLE10=All is Fair
TTITLE11=Another Honky Tonk Song
TTITLE12=Beer Joints
TTITLE13=Uncle Pen
TTITLE14=I'm Just a Honky
TTITLE15=Closing Prayer
EXTD=
EXTT0=
EXTT1=
EXTT2=
EXTT3=
EXTT4=
EXTT5=
EXTT6=
EXTT7=
EXTT8=
EXTT9=
EXTT10=
EXTT11=
EXTT12=
EXTT13=
EXTT14=
EXTT15=
PLAYORDER=
